<!-- icon666.com - MILLIONS vector ICONS FREE --><svg id="Layer_1" viewBox="0 0 32 32" xmlns="http://www.w3.org/2000/svg" xmlns:xlink="http://www.w3.org/1999/xlink" data-name="Layer 1"><linearGradient id="linear-gradient" gradientUnits="userSpaceOnUse" x1="16" x2="16" y1="-4.25" y2="45.76"><stop offset="0" stop-color="#68ecfb"></stop><stop offset=".51" stop-color="#00c7f8"></stop><stop offset="1" stop-color="#0051d8"></stop></linearGradient><linearGradient id="linear-gradient-2" x1="20" x2="20" xlink:href="#linear-gradient" y1="-4.25" y2="45.76"></linearGradient><linearGradient id="linear-gradient-4" x1="12" x2="12" xlink:href="#linear-gradient" y1="-4.25" y2="45.76"></linearGradient><path d="m27 6.25h-5.25v-1.25a2.75 2.75 0 0 0 -2.75-2.75h-6a2.75 2.75 0 0 0 -2.75 2.75v1.25h-5.25a.75.75 0 0 0 0 1.5h.53l1.57 19.47a2.77 2.77 0 0 0 2.74 2.53h12.32a2.77 2.77 0 0 0 2.74-2.53l1.57-19.47h.53a.75.75 0 0 0 0-1.5zm-15.25-1.25a1.25 1.25 0 0 1 1.25-1.25h6a1.25 1.25 0 0 1 1.25 1.25v1.25h-8.5zm11.65 22.1a1.26 1.26 0 0 1 -1.25 1.15h-12.31a1.26 1.26 0 0 1 -1.24-1.15l-1.6-19.35h18z" fill="url(#linear-gradient)"></path><path d="m20 12.25a.75.75 0 0 0 -.75.75v10a.75.75 0 0 0 1.5 0v-10a.75.75 0 0 0 -.75-.75z" fill="url(#linear-gradient-2)"></path><path d="m16 12.25a.75.75 0 0 0 -.75.75v10a.75.75 0 0 0 1.5 0v-10a.75.75 0 0 0 -.75-.75z" fill="url(#linear-gradient)"></path><path d="m12 12.25a.75.75 0 0 0 -.75.75v10a.75.75 0 0 0 1.5 0v-10a.75.75 0 0 0 -.75-.75z" fill="url(#linear-gradient-4)"></path></svg>