<!-- icon666.com - MILLIONS vector ICONS FREE --><svg viewBox="0 0 64 64" xmlns="http://www.w3.org/2000/svg"><g id="Layer_3" data-name="Layer 3"><path d="m59.92 45.35v4.86h-55.84v-4.86h3.68 48.48z" fill="#906fa9"></path><path d="m56.51 14.89.8 1.83-1.8.78-.01-.01-.02.01-.77-1.82-.01-.01z" fill="#bdceb7"></path><path d="m55.51 17.5.78 1.81-1.84.79-.78-1.81 1.81-.79.01.01z" fill="#bdceb7"></path><path d="m56.24 45.35h-48.48a24.27019 24.27019 0 0 1 48.48 0z" fill="#92cbdb" style="fill: rgb(62, 196, 234);"></path><g fill="#bdceb7"><path d="m55.51 17.5-.02.01-.01-.01.02-.01z" fill="#bdceb7"></path><path d="m54.71 15.68-1.83.79-.79-1.81 1.83-.8.78 1.81z" fill="#bdceb7"></path><path d="m47.51 8.89.8 1.83-1.8.78-.01-.01-.02.01-.77-1.82-.01-.01z" fill="#bdceb7"></path><path d="m46.51 11.5.78 1.81-1.84.79-.78-1.81 1.81-.79.01.01z" fill="#bdceb7"></path><path d="m46.51 11.5-.02.01-.01-.01.02-.01z" fill="#bdceb7"></path><path d="m45.71 9.68-1.83.79-.79-1.81 1.83-.8.78 1.81z" fill="#bdceb7"></path></g><circle cx="32" cy="17.43" fill="#906fa9" r="3.64"></circle><path d="m23.87 15.01-.24-.24a2.31766 2.31766 0 0 0 -3.09-.18 3.8675 3.8675 0 0 0 -.31-5.11l-.41-.41a3.87319 3.87319 0 0 0 -5.83.41 3.87772 3.87772 0 0 0 -5.83-.41l-.41.41a3.8688 3.8688 0 0 0 0 5.47l6.24 6.08 2.59-2.52 3.54 3.45 3.75-3.65a2.33569 2.33569 0 0 0 0-3.3zm-3.75.01-.01-.01.07-.06c-.02.02-.04.05-.06.07z" fill="#f5ca2e"></path></g></svg>