<!-- icon666.com - MILLIONS vector ICONS FREE --><svg version="1.1" id="Capa_1" xmlns="http://www.w3.org/2000/svg" xmlns:xlink="http://www.w3.org/1999/xlink" x="0px" y="0px" viewBox="0 0 512 512" style="enable-background:new 0 0 512 512;" xml:space="preserve"><path style="fill:#808080;" d="M406.496,308.497c-54.128,0-98.004,43.878-98.004,98.004s43.875,97.999,98.004,97.999 s98.004-43.873,98.004-97.999S460.625,308.497,406.496,308.497z"></path><path style="fill:#DBF4FF;" d="M406.496,338.497V474.5c37.497,0,68.004-30.504,68.004-67.999 C474.5,369.003,443.993,338.497,406.496,338.497z"></path><path style="fill:#FFFFFF;" d="M444.5,406.501c0-37.498-17.049-68.004-38.004-68.004c-37.497,0-68.004,30.507-68.004,68.004 c0,37.495,30.507,67.999,68.004,67.999C427.451,474.5,444.5,443.996,444.5,406.501z"></path><path style="fill:#999999;" d="M105.504,308.497c-54.128,0-98.004,43.878-98.004,98.004S51.375,504.5,105.504,504.5 s98.004-43.873,98.004-97.999S159.632,308.497,105.504,308.497z"></path><path style="fill:#DBF4FF;" d="M105.504,338.497V474.5c37.497,0,68.004-30.504,68.004-67.999 C173.508,369.003,143.001,338.497,105.504,338.497z"></path><path style="fill:#FFFFFF;" d="M143.508,406.501c0-37.498-17.049-68.004-38.004-68.004c-37.497,0-68.004,30.507-68.004,68.004 c0,37.495,30.507,67.999,68.004,67.999C126.459,474.5,143.508,443.996,143.508,406.501z"></path><path style="fill:#353535;" d="M191.438,204.94l-28.701,69.291c22.961,9.511,49.285-1.393,58.795-24.354L191.438,204.94z"></path><path style="fill:#4F4F4F;" d="M193.816,238.397l-2.378-33.457l-53.055,10.496c-9.511,22.961,1.393,49.285,24.354,58.795 C170.39,277.401,184.305,261.358,193.816,238.397z"></path><path style="fill:#1990C2;" d="M248.977,131.358l-27.716-11.48l-27.444,118.519l27.716,11.48l38.268-92.388 C264.027,147.284,259.181,135.585,248.977,131.358z"></path><path style="fill:#2DADE3;" d="M221.26,119.878l-18.478-7.654c-10.205-4.227-21.904,0.619-26.131,10.824l-38.268,92.388 l55.433,22.961l38.268-92.388C236.311,135.804,231.465,124.105,221.26,119.878z"></path><path style="fill:#C27749;" d="M254.581,7.5v90c24.853,0,45-20.147,45-45S279.434,7.5,254.581,7.5z"></path><path style="fill:#E18F4E;" d="M269.581,52.5c0-24.853-6.716-45-15-45c-24.853,0-45,20.147-45,45s20.147,45,45,45 C262.865,97.5,269.581,77.353,269.581,52.5z"></path><path d="M254.581,105c28.948,0,52.5-23.551,52.5-52.5S283.529,0,254.581,0s-52.5,23.551-52.5,52.5S225.633,105,254.581,105z M254.581,15c20.678,0,37.5,16.822,37.5,37.5S275.259,90,254.581,90s-37.5-16.822-37.5-37.5S233.903,15,254.581,15z"></path><path d="M406.496,300.997c-16.716,0-32.532,3.914-46.591,10.864l-21.156-36.221v-52.891h22.5c12.406,0,22.5-10.093,22.5-22.5 s-10.094-22.5-22.5-22.5h-60.751c-4.143,0-7.5,3.358-7.5,7.5s3.357,7.5,7.5,7.5h23.251v15h-35.491 c-13.647,0-26.093-5.238-35.439-13.805l13.911-33.584c5.802-14.009-0.875-30.127-14.884-35.93l-46.194-19.134 c-3.361-1.393-6.899-2.099-10.516-2.099c-11.166,0-21.142,6.666-25.414,16.982l-38.269,92.388 c-5.367,12.956-5.367,27.226-0.001,40.182c5.367,12.956,15.457,23.046,28.413,28.413c0.014,0.006,73.189,30.316,73.189,30.316 v65.025c0,4.142,3.357,7.5,7.5,7.5s7.5-3.358,7.5-7.5v-70.036c0-3.033-1.827-5.768-4.63-6.929l-43.842-18.16 c11.302-4.542,20.803-12.948,26.684-23.998h61.99c4.143,0,7.5-3.358,7.5-7.5s-3.357-7.5-7.5-7.5h-55.501l14.048-33.915 c11.45,8.939,25.834,14.286,41.453,14.286h35.491v47.42h-83.784c-4.143,0-7.5,3.358-7.5,7.5s3.357,7.5,7.5,7.5h78.271 L258.39,388.466c-3.119,5.515-11.589,10.538-17.771,10.538h-29.883c-2.329-33-19.901-61.856-45.702-79.555l5.648-9.671 c2.089-3.577,0.883-8.17-2.694-10.259c-3.576-2.089-8.169-0.884-10.259,2.693l-5.636,9.651C138.034,304.913,122.217,301,105.502,301 C47.329,300.997,0,348.326,0,406.501C0,464.673,47.329,512,105.504,512c55.653,0,101.374-43.314,105.234-97.999h29.883 c11.723,0,24.976-7.805,30.789-18.086l59.865-103.33l15.689,26.861c-27.738,19.029-45.972,50.951-45.972,87.055 c0,58.172,47.329,105.499,105.504,105.499S512,464.673,512,406.501C512,348.326,464.671,300.997,406.496,300.997z M183.581,125.917 c1.942-4.69,6.479-7.722,11.556-7.722c1.637,0,3.243,0.322,4.775,0.957l46.194,19.134c6.368,2.638,9.402,9.964,6.766,16.332 l-10.681,25.785c-4.098-7.475-6.434-16.047-6.434-25.156c0-4.142-3.357-7.5-7.5-7.5s-7.5,3.358-7.5,7.5 c0,15.769,5.45,30.281,14.546,41.784l-17.831,43.046l-69.292-28.702L183.581,125.917z M179.94,270.168 c-4.915,0-9.732-0.963-14.32-2.861c-9.27-3.841-16.477-11.047-20.309-20.301c-2.858-6.899-3.582-14.32-2.178-21.486l67.888,28.12 C204.142,263.86,192.611,270.168,179.94,270.168z M338.749,192.748h22.5c4.136,0,7.5,3.364,7.5,7.5s-3.364,7.5-7.5,7.5h-22.5 V192.748z M195.695,399.001h-15.062c-2.178-21.977-13.823-41.202-30.783-53.554l7.601-13.014 C178.828,347.469,193.429,371.512,195.695,399.001z M98.999,410.235c1.338,2.33,3.818,3.766,6.505,3.766h60.022 C161.818,443.832,136.325,467,105.504,467C72.142,467,45,439.86,45,406.501c0-33.362,27.142-60.504,60.504-60.504 c8.446,0,16.49,1.745,23.8,4.885l-30.276,51.837C97.673,405.038,97.662,407.905,98.999,410.235z M118.57,399.001l23.671-40.528 c12.559,9.63,21.238,24.061,23.285,40.528L118.57,399.001L118.57,399.001z M105.504,497C55.6,497,15,456.402,15,406.501 c0-49.904,40.6-90.504,90.504-90.504c13.959,0,27.189,3.179,39.008,8.847l-7.605,13.02c-9.57-4.396-20.2-6.867-31.403-6.867 C63.871,330.997,30,364.868,30,406.501C30,448.131,63.871,482,105.504,482c39.102,0,71.352-29.877,75.129-67.999h15.062 C191.869,460.406,152.882,497,105.504,497z M406.496,497c-49.904,0-90.504-40.598-90.504-90.499 c0-30.589,15.256-57.678,38.557-74.069l7.601,13.014c-18.865,13.74-31.158,35.983-31.158,61.054 c0,41.63,33.871,75.499,75.504,75.499S482,448.131,482,406.501c0-41.633-33.871-75.504-75.504-75.504 c-11.203,0-21.833,2.471-31.403,6.867l-7.605-13.02c11.818-5.668,25.049-8.847,39.008-8.847c49.904,0,90.504,40.6,90.504,90.504 C497,456.402,456.4,497,406.496,497z M412.973,402.718l-30.276-51.837c7.309-3.14,15.354-4.885,23.8-4.885 c33.362,0,60.504,27.142,60.504,60.504C467,439.86,439.858,467,406.496,467s-60.504-27.14-60.504-60.499 c0-19.553,9.332-36.96,23.766-48.028l30.261,51.811c1.395,2.388,3.904,3.719,6.483,3.718c1.284,0,2.587-0.33,3.775-1.025 C413.855,410.888,415.062,406.295,412.973,402.718z"></path></svg>