<!-- icon666.com - MILLIONS vector ICONS FREE --><svg version="1.1" id="Capa_1" xmlns="http://www.w3.org/2000/svg" xmlns:xlink="http://www.w3.org/1999/xlink" x="0px" y="0px" viewBox="0 0 512 512" style="enable-background:new 0 0 512 512;" xml:space="preserve"><path style="fill:#D9EEF7;" d="M448,416h42.667v53.333H448V416z"></path><path style="fill:#FFE451;" d="M490.667,64v352H448V64l21.333-32L490.667,64z"></path><path style="fill:#AAC4DA;" d="M117.333,138.667h192v64h-192V138.667z"></path><path style="fill:#D9EEF7;" d="M362.667,320L288,394.667v-64c0-5.891,4.776-10.667,10.667-10.667H362.667z"></path><path style="fill:#F2F2F2;" d="M362.667,74.667V320h-64c-5.891,0-10.667,4.776-10.667,10.667v64H74.667 C68.776,394.667,64,389.891,64,384V74.667H362.667z M309.333,202.667v-64h-192v64H309.333z"></path><path style="fill:#69F0F7;" d="M405.333,74.667v362.667h-384V74.667H64V384c0,5.891,4.776,10.667,10.667,10.667H288L362.667,320 V74.667H405.333z"></path><g><path style="fill:#AAC4DA;" d="M405.333,437.333v21.333c0,23.564-19.103,42.667-42.667,42.667H64 c-23.564,0-42.667-19.103-42.667-42.667v-21.333H405.333z"></path><path style="fill:#AAC4DA;" d="M405.333,53.333v21.333h-384V53.333c0-23.564,19.103-42.667,42.667-42.667h298.667 C386.231,10.667,405.333,29.769,405.333,53.333z"></path></g><g><path style="fill:#4C5B66;" d="M362.667,0H64C34.559,0.035,10.702,23.893,10.667,53.333v405.333 C10.702,488.107,34.559,511.965,64,512h298.667c29.441-0.035,53.298-23.893,53.333-53.333V53.333 C415.965,23.893,392.107,0.035,362.667,0z M64,21.333h298.667c17.673,0,32,14.327,32,32V64H32V53.333 C32,35.66,46.327,21.333,64,21.333z M352,309.333h-53.333c-11.782,0-21.333,9.551-21.333,21.333V384H74.667V85.333H352V309.333z M336.917,330.667l-38.251,38.251v-38.251L336.917,330.667z M74.667,405.333H288c2.829-0.001,5.541-1.125,7.541-3.125 l74.667-74.667c2.001-2,3.125-4.713,3.125-7.541V85.333h21.333v341.333H32V85.333h21.333V384 C53.333,395.782,62.885,405.333,74.667,405.333z M362.667,490.667H64c-17.673,0-32-14.327-32-32V448h362.667v10.667 C394.667,476.34,380.34,490.667,362.667,490.667z"></path><path style="fill:#4C5B66;" d="M499.541,58.08l-21.333-32c-3.666-4.901-10.612-5.903-15.513-2.236 c-0.849,0.635-1.602,1.388-2.236,2.236l-21.333,32c-1.165,1.755-1.789,3.814-1.792,5.92v405.333 c0,5.891,4.776,10.667,10.667,10.667h42.667c5.891,0,10.667-4.776,10.667-10.667V64C501.33,61.894,500.707,59.835,499.541,58.08z M469.333,51.2L480,67.2v338.133h-21.333V67.2L469.333,51.2z M458.667,458.667v-32H480v32H458.667z"></path><path style="fill:#4C5B66;" d="M117.333,213.333h192c5.891,0,10.667-4.776,10.667-10.667v-64c0-5.891-4.776-10.667-10.667-10.667 h-192c-5.891,0-10.667,4.776-10.667,10.667v64C106.667,208.558,111.442,213.333,117.333,213.333z M128,149.333h170.667V192H128 V149.333z"></path><path style="fill:#4C5B66;" d="M106.667,234.667H128V256h-21.333V234.667z"></path><path style="fill:#4C5B66;" d="M149.333,234.667h21.333V256h-21.333V234.667z"></path><path style="fill:#4C5B66;" d="M192,234.667h128V256H192V234.667z"></path><path style="fill:#4C5B66;" d="M106.667,277.333h138.667v21.333H106.667V277.333z"></path><path style="fill:#4C5B66;" d="M106.667,320h96v21.333h-96V320z"></path></g></svg>