<!-- icon666.com - MILLIONS vector ICONS FREE --><svg viewBox="0 0 64 64" xmlns="http://www.w3.org/2000/svg"><g id="Movie-Video-Watching-Entertainment-At_home" data-name="Movie-Video-Watching-Entertainment-At home"><g fill="#bddbff"><path d="m31 54v1h-14v-1a3.984 3.984 0 0 1 1.51-3.13.994.994 0 0 0 .49.13h10a.994.994 0 0 0 .49-.13 3.984 3.984 0 0 1 1.51 3.13z"></path><path d="m47 54v1h-14v-1a4 4 0 0 1 4-4h6a4 4 0 0 1 4 4z"></path><path d="m33 55h16a4 4 0 0 1 4 4v1a1 1 0 0 1 -1 1h-40a1 1 0 0 1 -1-1v-1a4 4 0 0 1 4-4z"></path><path d="m30 39v11a1.009 1.009 0 0 1 -.51.87.994.994 0 0 1 -.49.13h-10a.994.994 0 0 1 -.49-.13 1.009 1.009 0 0 1 -.51-.87v-11a6.009 6.009 0 0 1 6-6 6 6 0 0 1 6 6z"></path><path d="m46 39v2a2.006 2.006 0 0 1 -2 2h-8a2.006 2.006 0 0 1 -2-2v-7a1 1 0 0 1 1-1h5a6 6 0 0 1 6 6z"></path><path d="m15 31h34v8h-3a6 6 0 0 0 -6-6h-5a1 1 0 0 0 -1 1v5h-4a6 6 0 0 0 -6-6 6.009 6.009 0 0 0 -6 6h-3z"></path><path d="m3 31h12v8h-11a1 1 0 0 1 -1-1z"></path><path d="m11 39v3a1 1 0 0 1 -1 1h-2a1 1 0 0 1 -1-1v-3z"></path><path d="m60 27a1 1 0 0 1 1 1v3h-58v-3a1 1 0 0 1 1-1z"></path><path d="m57 39v3a1 1 0 0 1 -1 1h-2a1 1 0 0 1 -1-1v-3z"></path><path d="m49 31h12v7a1 1 0 0 1 -1 1h-11z"></path><path d="m13 23h38v4h-38z"></path><path d="m26 13.62v2.76a1 1 0 0 1 -1.45.9l-1.76-1.39a.991.991 0 0 1 0-1.78l1.76-1.39a1 1 0 0 1 1.45.9z"></path><path d="m41.21 14.11a.991.991 0 0 1 0 1.78l-1.76 1.39a1 1 0 0 1 -1.45-.9v-2.76a1 1 0 0 1 1.45-.9z"></path><path d="m33.21 14.11a.991.991 0 0 1 0 1.78l-1.76 1.39a1 1 0 0 1 -1.45-.9v-2.76a1 1 0 0 1 1.45-.9z"></path></g><path d="m60 26v-10a2.006 2.006 0 0 0 -2-2h-6v-4h-2v16h-36v-2h23v-2h-23v-18h36v4h2v-4a2.006 2.006 0 0 0 -2-2h-36a2.006 2.006 0 0 0 -2 2v10h-6a2.006 2.006 0 0 0 -2 2v10a2.006 2.006 0 0 0 -2 2v10a2.006 2.006 0 0 0 2 2h2v2a2.006 2.006 0 0 0 2 2h2a2.006 2.006 0 0 0 2-2v-2h5v4h2v-5a5 5 0 0 1 10 0v11h-10v-4h-2v4a1.98 1.98 0 0 0 .17.8 4.924 4.924 0 0 0 -1.17 3.2h-1a5 5 0 0 0 -5 5v1a2.006 2.006 0 0 0 2 2h32v-2h-32v-1a3.009 3.009 0 0 1 3-3h34a3.009 3.009 0 0 1 3 3v1h-6v2h6a2.006 2.006 0 0 0 2-2v-1a5 5 0 0 0 -5-5h-1a5 5 0 0 0 -5-5v-2.01a4.409 4.409 0 0 0 .54-.46 4.986 4.986 0 0 0 1.38-2.69 3 3 0 0 0 2.08-2.84v-1h5v2a2.006 2.006 0 0 0 2 2h2a2.006 2.006 0 0 0 2-2v-2h2a2.006 2.006 0 0 0 2-2v-10a2.006 2.006 0 0 0 -2-2zm-8-10h6v10h-6zm-46 0h6v10h-6zm4 26h-2v-2h2zm4-4h-10v-6h10zm10-6a7 7 0 0 0 -6.92 6h-1.08v-6h19a2.006 2.006 0 0 0 -2 2v4h-2.08a7 7 0 0 0 -6.92-6zm-6 22a3 3 0 0 1 .8-2.02 1.355 1.355 0 0 0 .2.02h10a1.355 1.355 0 0 0 .2-.02 3 3 0 0 1 .8 2.02zm14 0a4.924 4.924 0 0 0 -1.17-3.2 1.98 1.98 0 0 0 .17-.8v-10h2v1a3 3 0 0 0 2.08 2.84 5.011 5.011 0 0 0 1.92 3.15v2.01a5 5 0 0 0 -5 5zm14 0h-12a3.009 3.009 0 0 1 3-3h6a3.009 3.009 0 0 1 3 3zm-7.5-8.41a2.951 2.951 0 0 1 -1.3-1.59h5.62a3.113 3.113 0 0 1 -.68 1.11 3.056 3.056 0 0 1 -.64.48 2.98 2.98 0 0 1 -3 0zm2.5 2.3v1.11h-2v-1.11a4.6 4.6 0 0 0 2 0zm4-6.89a1 1 0 0 1 -1 1h-8a1 1 0 0 1 -1-1v-7h5a5 5 0 0 1 5 5zm3-3h-1.08a7 7 0 0 0 -6.92-6h8zm8 4h-2v-2h2zm4-4h-10v-6h10zm0-8h-56v-2h56z" fill="#3d9ae2"></path><path d="m8 18h2v2h-2z" fill="#3d9ae2"></path><path d="m8 22h2v2h-2z" fill="#3d9ae2"></path><path d="m8 34h2v2h-2z" fill="#3d9ae2"></path><path d="m54 18h2v2h-2z" fill="#3d9ae2"></path><path d="m54 22h2v2h-2z" fill="#3d9ae2"></path><path d="m54 34h2v2h-2z" fill="#3d9ae2"></path><path d="m32.064 11.937a.969.969 0 0 0 -.169-.108 2 2 0 0 0 -2.895 1.789v2.764a2.006 2.006 0 0 0 2 2 2.007 2.007 0 0 0 .9-.213.969.969 0 0 0 .169-.108l1.7-1.33a2 2 0 0 0 0-3.466zm.53 3.17-1.594 1.249v-2.712l1.594 1.249a1.034 1.034 0 0 0 .17.107 1.034 1.034 0 0 0 -.17.107z" fill="#3d9ae2"></path><path d="m44 18v-6h-2v1.448a1.913 1.913 0 0 0 -.238-.181l-1.7-1.33a.969.969 0 0 0 -.169-.108 2 2 0 0 0 -2.893 1.789v2.764a2.006 2.006 0 0 0 2 2 2.007 2.007 0 0 0 .9-.213.969.969 0 0 0 .169-.108l1.7-1.33a1.913 1.913 0 0 0 .231-.179v1.448zm-3.406-2.893-1.594 1.249v-2.712l1.594 1.249a1.034 1.034 0 0 0 .17.107 1.034 1.034 0 0 0 -.17.107z" fill="#3d9ae2"></path><path d="m20 12v6h2v-1.448a1.913 1.913 0 0 0 .238.181l1.7 1.33a.969.969 0 0 0 .169.108 2.007 2.007 0 0 0 .9.213 2.006 2.006 0 0 0 2-2v-2.766a2 2 0 0 0 -2.895-1.789.969.969 0 0 0 -.169.108l-1.7 1.33a1.913 1.913 0 0 0 -.238.181v-1.448zm3.406 2.893 1.594-1.249v2.712l-1.594-1.249a1.034 1.034 0 0 0 -.17-.107 1.034 1.034 0 0 0 .17-.107z" fill="#3d9ae2"></path></g></svg>