<!-- icon666.com - MILLIONS vector ICONS FREE --><svg id="Layer_1" enable-background="new 0 0 256 256" viewBox="0 0 256 256" xmlns="http://www.w3.org/2000/svg"><g><g><g><g><path d="m233.93 89.724c18.716-18.716 18.716-49.06 0-67.776s-49.06-18.716-67.776 0c-15.684 15.684-18.217 39.532-7.613 57.861l-3.949 19.219c-.276 1.345.913 2.534 2.258 2.258l19.219-3.949c18.329 10.603 42.177 8.071 57.861-7.613z" fill="#ffea92"></path></g></g><g><g><path d="m200.012 85.431c9.006 0 16.488-5.488 17.981-12.705.285-1.376-.828-2.652-2.233-2.652h-31.496c-1.406 0-2.518 1.275-2.233 2.652 1.493 7.217 8.975 12.705 17.981 12.705z" fill="#f9a7a7"></path></g></g><g><g><path d="m177.736 56.075c.856.645 2.036.644 2.891-.003l10.42-7.883c2.937-2.213 3.969-6.153 2.494-9.522-1.602-3.657-5.671-5.555-9.502-4.431-2.189.642-3.924 2.165-4.882 4.105-.958-1.94-2.693-3.463-4.882-4.105-4.025-1.181-8.314.974-9.726 5.001-1.159 3.304.102 6.98 2.898 9.087z" fill="#f9a7a7"></path></g></g><g><g><path d="m219.18 56.075c.856.645 2.036.644 2.891-.003l10.42-7.883c2.937-2.213 3.969-6.153 2.494-9.522-1.602-3.657-5.671-5.555-9.502-4.431-2.189.642-3.924 2.165-4.882 4.105-.958-1.94-2.693-3.463-4.882-4.105-4.025-1.181-8.314.974-9.726 5.001-1.159 3.304.102 6.98 2.898 9.087z" fill="#f9a7a7"></path></g></g><g><g><path d="m199.998 105.754c-8.308 0-16.667-2.066-24.263-6.307l-18.483 3.797c-1.291.266-2.621-.132-3.554-1.065s-1.332-2.262-1.065-3.555l3.797-18.482c-10.84-19.42-7.474-43.826 8.31-59.609 19.465-19.466 51.139-19.465 70.604 0 19.466 19.465 19.466 51.139 0 70.604-9.609 9.611-22.415 14.617-35.346 14.617zm-23.929-10.417c.349 0 .695.091 1.001.269 17.96 10.39 40.76 7.389 55.446-7.296 17.906-17.906 17.906-47.042 0-64.948-17.906-17.906-47.042-17.906-64.948 0-14.685 14.686-17.686 37.486-7.296 55.446.245.424.326.924.228 1.404l-3.922 19.088 19.089-3.922c.133-.027.268-.041.402-.041zm57.861-5.613h.01z" fill="#3762cc"></path></g></g></g><g><g><g><path d="m113.752 100.75c-2.209 0-4-1.791-4-4v-32.75c0-1.103-.897-2-2-2h-59.138c-1.103 0-2 .897-2 2v32.75c0 2.209-1.791 4-4 4s-4-1.791-4-4v-32.75c0-5.514 4.486-10 10-10h59.138c5.514 0 10 4.486 10 10v32.75c0 2.209-1.791 4-4 4z" fill="#e0ebfc"></path></g></g></g><g><g><g><path d="m113.752 102.75c-3.309 0-6-2.691-6-6v-32.75h-59.138v32.75c0 3.309-2.691 6-6 6s-6-2.691-6-6v-32.75c0-6.617 5.383-12 12-12h59.138c6.617 0 12 5.383 12 12v32.75c0 3.309-2.691 6-6 6zm-65.138-42.75h59.138c2.206 0 4 1.794 4 4v32.75c0 1.103.897 2 2 2s2-.897 2-2v-32.75c0-4.411-3.589-8-8-8h-59.138c-4.411 0-8 3.589-8 8v32.75c0 1.103.897 2 2 2s2-.897 2-2v-32.75c0-2.206 1.794-4 4-4z" fill="#3762cc"></path></g></g></g><g><g><path d="m145.634 89.436c-.035-2.184-1.815-3.936-3.999-3.936h-55.616-15.672-55.616c-2.184 0-3.964 1.752-3.999 3.936l-2.483 154.5c-.036 2.234 1.765 4.064 3.999 4.064h58.099 15.672 58.099c2.234 0 4.035-1.83 3.999-4.064z" fill="#4671c6"></path></g></g><g><g><path d="m144.118 250h-131.87c-1.621 0-3.14-.636-4.277-1.792-1.137-1.155-1.749-2.684-1.722-4.305l2.483-154.5c.052-3.255 2.744-5.903 5.999-5.903h126.903c3.255 0 5.947 2.648 5.999 5.903l2.483 154.5c.026 1.621-.585 3.149-1.722 4.305-1.136 1.156-2.655 1.792-4.276 1.792zm-129.387-162.5c-1.085 0-1.982.883-2 1.968l-2.483 154.5c-.008.541.195 1.05.574 1.435s.886.597 1.426.597h131.87c.541 0 1.047-.212 1.426-.597s.583-.895.574-1.435l-2.483-154.5c-.018-1.085-.915-1.968-2-1.968z" fill="#3762cc"></path></g></g><g><g><path d="m223.642 140.385c-.062-1.611-1.386-2.885-2.998-2.885h-75.892-75.892c-1.612 0-2.936 1.274-2.998 2.885l-3.991 104.5c-.065 1.701 1.296 3.115 2.998 3.115h79.883 79.883c1.702 0 3.063-1.414 2.998-3.115z" fill="#6bdddd"></path></g></g><g><g><path d="m224.635 250h-159.766c-1.372 0-2.651-.544-3.602-1.533s-1.446-2.287-1.394-3.658l3.991-104.5c.103-2.697 2.297-4.81 4.996-4.81h151.784c2.699 0 4.894 2.113 4.997 4.81l3.991 104.5c.052 1.37-.443 2.669-1.394 3.658s-2.231 1.533-3.603 1.533zm-155.775-110.5c-.54 0-.979.422-.999.962l-3.991 104.5c-.014.37.168.617.279.731.11.115.35.307.72.307h159.767c.37 0 .61-.192.721-.307.11-.115.293-.362.279-.731l-3.991-104.5c-.021-.54-.459-.962-1-.962z" fill="#3762cc"></path></g></g><g><g><g><path d="m180.321 153.75c-2.209 0-4-1.791-4-4v-32.75c0-1.103-.897-2-2-2h-59.138c-1.103 0-2 .897-2 2v32.75c0 2.209-1.791 4-4 4s-4-1.791-4-4v-32.75c0-5.514 4.486-10 10-10h59.138c5.514 0 10 4.486 10 10v32.75c0 2.209-1.791 4-4 4z" fill="#e0ebfc"></path></g></g></g><g><g><g><path d="m180.321 155.75c-3.309 0-6-2.691-6-6v-32.75h-59.138v32.75c0 3.309-2.691 6-6 6s-6-2.691-6-6v-32.75c0-6.617 5.383-12 12-12h59.138c6.617 0 12 5.383 12 12v32.75c0 3.309-2.692 6-6 6zm-65.138-42.75h59.138c2.206 0 4 1.794 4 4v32.75c0 1.103.897 2 2 2s2-.897 2-2v-32.75c0-4.411-3.589-8-8-8h-59.138c-4.411 0-8 3.589-8 8v32.75c0 1.103.897 2 2 2s2-.897 2-2v-32.75c0-2.206 1.795-4 4-4z" fill="#3762cc"></path></g></g></g></g></svg>