<!-- icon666.com - MILLIONS vector ICONS FREE --><svg id="Icon_Set" viewBox="0 0 256 256" xmlns="http://www.w3.org/2000/svg"><g><g><g><path d="m228.035 224.254h-200.07c-4.622 0-8.369-3.747-8.369-8.369v-129.965h216.808v129.965c0 4.622-3.747 8.369-8.369 8.369z" fill="#b76c6c"></path></g><g><path d="m42.96 224.25h-15c-4.62 0-8.36-3.74-8.36-8.37v-129.96h15v129.96c0 4.63 3.74 8.37 8.36 8.37z" fill="#c98585"></path></g><g><path d="m19.596 72.956v34.689l108.404 35.825 108.404-35.825v-34.689c0-2.689-2.18-4.869-4.869-4.869h-207.07c-2.689 0-4.869 2.18-4.869 4.869z" fill="#b76c6c"></path></g><g><path d="m24.46 68.09h15c-2.68 0-4.86 2.18-4.86 4.87v39.64l-15-4.96v-34.68c0-2.69 2.18-4.87 4.86-4.87z" fill="#c98585"></path></g><g><path d="m236.4 72.96v34.68l-15 4.96v-39.64c0-2.69-2.18-4.87-4.86-4.87h15c2.68 0 4.86 2.18 4.86 4.87z" fill="#965959"></path></g><g><path d="m236.4 85.92v129.96c0 4.63-3.74 8.37-8.36 8.37h-15c4.62 0 8.36-3.74 8.36-8.37v-129.96z" fill="#965959"></path></g><g><path d="m133.5 162.504h-11c-3.038 0-5.5-2.462-5.5-5.5v-28.334c0-3.038 2.462-5.5 5.5-5.5h11c3.038 0 5.5 2.462 5.5 5.5v28.333c0 3.038-2.462 5.501-5.5 5.501z" fill="#f9d335"></path></g></g><g fill="#5f266d"><path d="m231.54 64.09h-57.532v-28.17c0-4.505-3.665-8.17-8.171-8.17h-75.674c-4.506 0-8.171 3.665-8.171 8.17v28.17h-57.532c-4.886 0-8.86 3.979-8.86 8.87v142.92c0 6.821 5.545 12.37 12.36 12.37h200.08c6.815 0 12.36-5.549 12.36-12.37 0-27.833 0-109.985 0-142.92 0-4.891-3.974-8.87-8.86-8.87zm-141.548-28.17c0-.094.077-.17.171-.17h75.674c.094 0 .171.077.171.17v28.167h-76.016zm142.408 179.96c0 2.41-1.956 4.37-4.36 4.37h-200.08c-2.404 0-4.36-1.96-4.36-4.37v-102.705l89.4 29.546v14.283c0 5.238 4.262 9.5 9.5 9.5h11c5.238 0 9.5-4.262 9.5-9.5v-14.283l89.4-29.546zm-111.4-58.876v-28.334c0-.827.673-1.5 1.5-1.5h11c.827 0 1.5.673 1.5 1.5v28.333c0 .827-.673 1.5-1.5 1.5h-11c-.827.001-1.5-.672-1.5-1.499zm111.4-52.254-89.4 29.546v-5.626c0-5.238-4.262-9.5-9.5-9.5h-11c-5.238 0-9.5 4.262-9.5 9.5v5.626l-89.4-29.546c0-43.603 0 11.841 0-31.79 0-.48.386-.87.86-.87h207.08c.475 0 .86.39.86.87z"></path><path d="m219.221 175.837c2.209 0 4-1.791 4-4v-4.35c0-2.209-1.791-4-4-4s-4 1.791-4 4v4.35c0 2.209 1.791 4 4 4z"></path><path d="m219.221 207.837c2.209 0 4-1.791 4-4v-17c0-2.209-1.791-4-4-4s-4 1.791-4 4v17c0 2.209 1.791 4 4 4z"></path></g></g></svg>